<svg width="24" height="24" viewBox="0 0 24 24" fill="none" xmlns="http://www.w3.org/2000/svg">
<g id="material-symbols:inbox-customize-outline">
<path id="Vector" d="M5 20C4.45 20 3.979 19.804 3.587 19.412C3.195 19.02 2.99934 18.5493 3 18V4C3 3.45 3.196 2.979 3.588 2.587C3.98 2.195 4.45067 1.99934 5 2H19C19.55 2 20.021 2.196 20.413 2.588C20.805 2.98 21.0007 3.45067 21 4V9.65C20.6833 9.5 20.3583 9.379 20.025 9.287C19.6917 9.195 19.35 9.12434 19 9.075V4H5V13H9.2C9.35 13.45 9.6 13.8417 9.95 14.175C10.3 14.5083 10.6917 14.7417 11.125 14.875C11.075 15.2083 11.0417 15.5457 11.025 15.887C11.0083 16.2283 11.025 16.566 11.075 16.9C10.475 16.7833 9.91267 16.5623 9.388 16.237C8.86333 15.9117 8.40067 15.4993 8 15H5V18H11.325C11.4417 18.3667 11.575 18.7167 11.725 19.05C11.875 19.3833 12.0583 19.7 12.275 20H5ZM17.025 21L16.725 19.5C16.525 19.4167 16.3373 19.329 16.162 19.237C15.9867 19.145 15.8077 19.0327 15.625 18.9L14.175 19.35L13.175 17.65L14.325 16.65C14.2917 16.45 14.275 16.2333 14.275 16C14.275 15.7667 14.2917 15.55 14.325 15.35L13.175 14.35L14.175 12.65L15.625 13.1C15.8083 12.9667 15.9873 12.8543 16.162 12.763C16.3367 12.6717 16.5243 12.584 16.725 12.5L17.025 11H19.025L19.325 12.5C19.525 12.5833 19.7127 12.671 19.888 12.763C20.0633 12.855 20.2423 12.9673 20.425 13.1L21.875 12.65L22.875 14.35L21.725 15.35C21.7583 15.55 21.775 15.7667 21.775 16C21.775 16.2333 21.7583 16.45 21.725 16.65L22.875 17.65L21.875 19.35L20.425 18.9C20.2417 19.0333 20.0627 19.146 19.888 19.238C19.7133 19.33 19.5257 19.4173 19.325 19.5L19.025 21H17.025ZM18.025 18C18.575 18 19.046 17.804 19.438 17.412C19.83 17.02 20.0253 16.5493 20.024 16C20.024 15.45 19.8283 14.979 19.437 14.587C19.0457 14.195 18.575 13.9993 18.025 14C17.475 14 17.0043 14.196 16.613 14.588C16.2217 14.98 16.0253 15.4507 16.024 16C16.024 16.55 16.22 17.021 16.612 17.413C17.004 17.805 17.4757 18.0007 18.025 18Z" fill="#FFFFFD"/>
</g>
</svg>
