<svg width="24" height="24" viewBox="0 0 24 24" fill="none" xmlns="http://www.w3.org/2000/svg">
<path d="M12.0004 3L12.0104 13.55C11.4204 13.21 10.7404 13 10.0104 13C9.47756 12.9881 8.94773 13.0827 8.452 13.2784C7.95627 13.4741 7.50463 13.7668 7.12359 14.1394C6.74255 14.512 6.43979 14.957 6.2331 15.4482C6.0264 15.9395 5.91992 16.4671 5.91992 17C5.91992 17.5329 6.0264 18.0605 6.2331 18.5518C6.43979 19.043 6.74255 19.488 7.12359 19.8606C7.50463 20.2332 7.95627 20.5259 8.452 20.7216C8.94773 20.9173 9.47756 21.0119 10.0104 21C12.2304 21 14.0004 19.21 14.0004 17V7H18.0004V3H12.0004ZM10.0104 19C8.91037 19 8.01037 18.1 8.01037 17C8.01037 15.9 8.91037 15 10.0104 15C11.1104 15 12.0104 15.9 12.0104 17C12.0104 18.1 11.1104 19 10.0104 19Z" fill="#FFFFFD"/>
</svg>
