<svg width="28" height="28" viewBox="0 0 28 28" fill="none" xmlns="http://www.w3.org/2000/svg">
<path d="M13.9993 4.66663C15.237 4.66663 16.424 5.15829 17.2992 6.03346C18.1743 6.90863 18.666 8.09562 18.666 9.33329C18.666 10.571 18.1743 11.758 17.2992 12.6331C16.424 13.5083 15.237 14 13.9993 14C12.7617 14 11.5747 13.5083 10.6995 12.6331C9.82435 11.758 9.33268 10.571 9.33268 9.33329C9.33268 8.09562 9.82435 6.90863 10.6995 6.03346C11.5747 5.15829 12.7617 4.66663 13.9993 4.66663ZM13.9993 6.99996C13.3805 6.99996 12.787 7.24579 12.3494 7.68338C11.9118 8.12096 11.666 8.71445 11.666 9.33329C11.666 9.95213 11.9118 10.5456 12.3494 10.9832C12.787 11.4208 13.3805 11.6666 13.9993 11.6666C14.6182 11.6666 15.2117 11.4208 15.6493 10.9832C16.0868 10.5456 16.3327 9.95213 16.3327 9.33329C16.3327 8.71445 16.0868 8.12096 15.6493 7.68338C15.2117 7.24579 14.6182 6.99996 13.9993 6.99996ZM13.9993 15.1666C17.1143 15.1666 23.3327 16.7183 23.3327 19.8333V23.3333H4.66602V19.8333C4.66602 16.7183 10.8843 15.1666 13.9993 15.1666ZM13.9993 17.3833C10.5343 17.3833 6.88268 19.0866 6.88268 19.8333V21.1166H21.116V19.8333C21.116 19.0866 17.4643 17.3833 13.9993 17.3833Z" fill="#FFFFFD"/>
</svg>
