<svg width="32" height="32" viewBox="0 0 32 32" fill="none" xmlns="http://www.w3.org/2000/svg">
<g id="ic:twotone-noise-control-off">
<path id="Vector" d="M16.0003 5.33317C17.9203 5.33317 19.7203 5.83984 21.267 6.73317L23.2003 4.79984C21.1337 3.45317 18.6537 2.6665 16.0003 2.6665C13.347 2.6665 10.867 3.45317 8.78699 4.7865L10.7203 6.71984C12.331 5.80938 14.1501 5.33164 16.0003 5.33317ZM26.667 15.9998C26.667 17.9198 26.1603 19.7198 25.267 21.2665L27.2003 23.1998C28.547 21.1332 29.3337 18.6532 29.3337 15.9998C29.3337 13.3465 28.547 10.8665 27.2137 8.7865L25.2803 10.7198C26.1908 12.3305 26.6685 14.1496 26.667 15.9998ZM16.0003 26.6665C14.0803 26.6665 12.2803 26.1598 10.7337 25.2665L8.80032 27.1998C10.867 28.5465 13.347 29.3332 16.0003 29.3332C18.6537 29.3332 21.1337 28.5465 23.2137 27.2132L21.2803 25.2798C19.6696 26.1903 17.8505 26.668 16.0003 26.6665ZM5.33366 15.9998C5.33366 14.0798 5.84033 12.2798 6.73366 10.7332L4.78699 8.7865C3.45366 10.8665 2.66699 13.3465 2.66699 15.9998C2.66699 18.6532 3.45366 21.1332 4.78699 23.2132L6.72032 21.2798C5.80987 19.6691 5.33213 17.8501 5.33366 15.9998ZM15.3337 7.99984C12.027 7.99984 9.33366 10.6932 9.33366 13.9998C9.33366 15.6265 9.98699 17.2132 11.1337 18.3598L12.947 20.1732C13.1737 20.3998 13.3603 20.7598 13.5337 21.2665C13.802 22.0621 14.3129 22.7535 14.9944 23.2438C15.676 23.7341 16.4941 23.9985 17.3337 23.9998C19.5337 23.9998 21.3337 22.1998 21.3337 19.9998H18.667C18.6638 20.3146 18.5496 20.6181 18.3446 20.857C18.1396 21.0959 17.8569 21.2548 17.5463 21.3058C17.2357 21.3568 16.917 21.2965 16.6464 21.1357C16.3758 20.9749 16.1707 20.7237 16.067 20.4265C15.867 19.8398 15.5337 18.9865 14.827 18.2798L13.0137 16.4665C12.3737 15.8265 12.0003 14.9198 12.0003 13.9998C11.9995 13.1732 12.3058 12.3757 12.8599 11.7623C13.414 11.1488 14.1762 10.7631 14.9987 10.68C15.8211 10.597 16.6451 10.8224 17.3106 11.3127C17.9762 11.803 18.4358 12.5231 18.6003 13.3332H21.2937C20.9603 10.3332 18.4137 7.99984 15.3337 7.99984Z" fill="url(#paint0_linear_1465_2027)"/>
<path id="Vector_2" d="M18 18.6665C19.1046 18.6665 20 17.7711 20 16.6665C20 15.5619 19.1046 14.6665 18 14.6665C16.8954 14.6665 16 15.5619 16 16.6665C16 17.7711 16.8954 18.6665 18 18.6665Z" fill="url(#paint1_linear_1465_2027)"/>
</g>
<defs>
<linearGradient id="paint0_linear_1465_2027" x1="15.7836" y1="4.85847" x2="17.6357" y2="26.8693" gradientUnits="userSpaceOnUse">
<stop offset="0.0983" stop-color="#227F97"/>
<stop offset="0.8303" stop-color="#18ABAE"/>
</linearGradient>
<linearGradient id="paint1_linear_1465_2027" x1="17.9675" y1="14.9953" x2="18.2453" y2="18.2969" gradientUnits="userSpaceOnUse">
<stop offset="0.0983" stop-color="#227F97"/>
<stop offset="0.8303" stop-color="#18ABAE"/>
</linearGradient>
</defs>
</svg>
