<svg width="32" height="32" viewBox="0 0 32 32" fill="none" xmlns="http://www.w3.org/2000/svg">
<path d="M12.666 22L21.9993 16L12.666 9.99996V22ZM15.9993 29.3333C14.1549 29.3333 12.4216 28.9831 10.7993 28.2826C9.17713 27.5822 7.76602 26.6324 6.56602 25.4333C5.36602 24.2333 4.41624 22.8222 3.71668 21.2C3.01713 19.5777 2.6669 17.8444 2.66602 16C2.66602 14.1555 3.01624 12.4222 3.71668 10.8C4.41713 9.17774 5.3669 7.76663 6.56602 6.56663C7.76602 5.36663 9.17713 4.41685 10.7993 3.71729C12.4216 3.01774 14.1549 2.66751 15.9993 2.66663C17.8438 2.66663 19.5771 3.01685 21.1993 3.71729C22.8216 4.41774 24.2327 5.36751 25.4327 6.56663C26.6327 7.76663 27.5829 9.17774 28.2833 10.8C28.9838 12.4222 29.3336 14.1555 29.3327 16C29.3327 17.8444 28.9825 19.5777 28.282 21.2C27.5816 22.8222 26.6318 24.2333 25.4327 25.4333C24.2327 26.6333 22.8216 27.5835 21.1993 28.284C19.5771 28.9844 17.8438 29.3342 15.9993 29.3333Z" fill="#32E5EB"/>
</svg>
