<svg width="16" height="16" viewBox="0 0 16 16" fill="none" xmlns="http://www.w3.org/2000/svg">
<path d="M12 14.6667C11.4444 14.6667 10.9722 14.4723 10.5833 14.0834C10.1944 13.6945 10 13.2223 10 12.6667C10 12.5889 10.0056 12.5083 10.0167 12.4247C10.0278 12.3412 10.0444 12.2663 10.0667 12.2L5.36667 9.46671C5.17778 9.63337 4.96667 9.76404 4.73333 9.85871C4.5 9.95337 4.25556 10.0005 4 10C3.44444 10 2.97222 9.8056 2.58333 9.41671C2.19444 9.02782 2 8.5556 2 8.00004C2 7.44448 2.19444 6.97226 2.58333 6.58337C2.97222 6.19448 3.44444 6.00004 4 6.00004C4.25556 6.00004 4.5 6.04737 4.73333 6.14204C4.96667 6.23671 5.17778 6.36715 5.36667 6.53337L10.0667 3.80004C10.0444 3.73337 10.0278 3.65848 10.0167 3.57537C10.0056 3.49226 10 3.4116 10 3.33337C10 2.77782 10.1944 2.3056 10.5833 1.91671C10.9722 1.52782 11.4444 1.33337 12 1.33337C12.5556 1.33337 13.0278 1.52782 13.4167 1.91671C13.8056 2.3056 14 2.77782 14 3.33337C14 3.88893 13.8056 4.36115 13.4167 4.75004C13.0278 5.13893 12.5556 5.33337 12 5.33337C11.7444 5.33337 11.5 5.28626 11.2667 5.19204C11.0333 5.09782 10.8222 4.96715 10.6333 4.80004L5.93333 7.53337C5.95556 7.60004 5.97222 7.67515 5.98333 7.75871C5.99444 7.84226 6 7.92271 6 8.00004C6 8.07782 5.99444 8.15848 5.98333 8.24204C5.97222 8.3256 5.95556 8.40048 5.93333 8.46671L10.6333 11.2C10.8222 11.0334 11.0333 10.9029 11.2667 10.8087C11.5 10.7145 11.7444 10.6672 12 10.6667C12.5556 10.6667 13.0278 10.8612 13.4167 11.25C13.8056 11.6389 14 12.1112 14 12.6667C14 13.2223 13.8056 13.6945 13.4167 14.0834C13.0278 14.4723 12.5556 14.6667 12 14.6667ZM12 4.00004C12.1889 4.00004 12.3473 3.93604 12.4753 3.80804C12.6033 3.68004 12.6671 3.52182 12.6667 3.33337C12.6667 3.14448 12.6027 2.98604 12.4747 2.85804C12.3467 2.73004 12.1884 2.66626 12 2.66671C11.8111 2.66671 11.6527 2.73071 11.5247 2.85871C11.3967 2.98671 11.3329 3.14493 11.3333 3.33337C11.3333 3.52226 11.3973 3.68071 11.5253 3.80871C11.6533 3.93671 11.8116 4.00048 12 4.00004ZM4 8.66671C4.18889 8.66671 4.34733 8.60271 4.47533 8.47471C4.60333 8.34671 4.66711 8.18848 4.66667 8.00004C4.66667 7.81115 4.60267 7.65271 4.47467 7.52471C4.34667 7.39671 4.18844 7.33293 4 7.33337C3.81111 7.33337 3.65267 7.39737 3.52467 7.52537C3.39667 7.65337 3.33289 7.8116 3.33333 8.00004C3.33333 8.18893 3.39733 8.34737 3.52533 8.47537C3.65333 8.60337 3.81156 8.66715 4 8.66671ZM12 13.3334C12.1889 13.3334 12.3473 13.2694 12.4753 13.1414C12.6033 13.0134 12.6671 12.8552 12.6667 12.6667C12.6667 12.4778 12.6027 12.3194 12.4747 12.1914C12.3467 12.0634 12.1884 11.9996 12 12C11.8111 12 11.6527 12.064 11.5247 12.192C11.3967 12.32 11.3329 12.4783 11.3333 12.6667C11.3333 12.8556 11.3973 13.014 11.5253 13.142C11.6533 13.27 11.8116 13.3338 12 13.3334Z" fill="#FFFFFD"/>
</svg>
