<svg width="18" height="18" viewBox="0 0 18 18" fill="none" xmlns="http://www.w3.org/2000/svg">
<path d="M16.0575 8.5575L9.435 1.935C9.1575 1.6575 8.775 1.5 8.3775 1.5H3C2.175 1.5 1.5 2.175 1.5 3V8.3775C1.5 8.775 1.6575 9.1575 1.9425 9.435L8.565 16.0575C9.15 16.6425 10.1025 16.6425 10.6875 16.0575L16.065 10.68C16.65 10.095 16.65 9.15 16.0575 8.5575ZM4.875 6C4.2525 6 3.75 5.4975 3.75 4.875C3.75 4.2525 4.2525 3.75 4.875 3.75C5.4975 3.75 6 4.2525 6 4.875C6 5.4975 5.4975 6 4.875 6Z" fill="#FFFFFD"/>
</svg>
