<svg width="598" height="48" viewBox="0 0 598 48" fill="none" xmlns="http://www.w3.org/2000/svg">
<mask id="mask0_1409_2583" style="mask-type:luminance" maskUnits="userSpaceOnUse" x="0" y="0" width="598" height="48">
<path d="M598 0H0V47.4724H598V0Z" fill="white"/>
</mask>
<g mask="url(#mask0_1409_2583)">
<rect x="10.5586" y="15.2268" width="2.7493" height="16.4958" rx="1.37465" fill="url(#paint0_linear_1409_2583)"/>
<rect x="18.8066" y="9.72827" width="2.7493" height="27.493" rx="1.37465" fill="url(#paint1_linear_1409_2583)"/>
<rect x="27.0547" y="19.6257" width="2.7493" height="7.69804" rx="1.37465" fill="url(#paint2_linear_1409_2583)"/>
<rect x="35.4648" y="15.2268" width="2.7493" height="16.4958" rx="1.37465" fill="url(#paint3_linear_1409_2583)"/>
<rect x="43.7129" y="9.72827" width="2.7493" height="27.493" rx="1.37465" fill="url(#paint4_linear_1409_2583)"/>
<rect x="51.9609" y="19.6257" width="2.7493" height="7.69804" rx="1.37465" fill="url(#paint5_linear_1409_2583)"/>
<rect x="60.374" y="15.2268" width="2.7493" height="16.4958" rx="1.37465" fill="url(#paint6_linear_1409_2583)"/>
<rect x="68.6221" y="9.72827" width="2.7493" height="27.493" rx="1.37465" fill="url(#paint7_linear_1409_2583)"/>
<rect x="76.8701" y="19.6257" width="2.7493" height="7.69804" rx="1.37465" fill="url(#paint8_linear_1409_2583)"/>
<rect x="93.918" y="15.2268" width="2.7493" height="16.4958" rx="1.37465" fill="url(#paint9_linear_1409_2583)"/>
<rect x="102.166" y="9.72827" width="2.7493" height="27.493" rx="1.37465" fill="url(#paint10_linear_1409_2583)"/>
<rect x="110.414" y="19.6257" width="2.7493" height="7.69804" rx="1.37465" fill="url(#paint11_linear_1409_2583)"/>
<rect x="118.824" y="15.2268" width="2.7493" height="16.4958" rx="1.37465" fill="url(#paint12_linear_1409_2583)"/>
<rect x="127.072" y="9.72827" width="2.7493" height="27.493" rx="1.37465" fill="url(#paint13_linear_1409_2583)"/>
<rect x="135.32" y="19.6257" width="2.7493" height="7.69804" rx="1.37465" fill="url(#paint14_linear_1409_2583)"/>
<rect x="143.733" y="15.2268" width="2.7493" height="16.4958" rx="1.37465" fill="url(#paint15_linear_1409_2583)"/>
<rect x="151.981" y="9.72827" width="2.7493" height="27.493" rx="1.37465" fill="url(#paint16_linear_1409_2583)"/>
<rect x="160.229" y="19.6257" width="2.7493" height="7.69804" rx="1.37465" fill="url(#paint17_linear_1409_2583)"/>
<rect x="168.639" y="15.2268" width="2.7493" height="16.4958" rx="1.37465" fill="url(#paint18_linear_1409_2583)"/>
<rect x="176.887" y="9.72827" width="2.7493" height="27.493" rx="1.37465" fill="url(#paint19_linear_1409_2583)"/>
<rect x="185.135" y="19.6257" width="2.7493" height="7.69804" rx="1.37465" fill="url(#paint20_linear_1409_2583)"/>
<rect x="202.188" y="15.2268" width="2.7493" height="16.4958" rx="1.37465" fill="url(#paint21_linear_1409_2583)"/>
<rect x="210.436" y="9.72827" width="2.7493" height="27.493" rx="1.37465" fill="url(#paint22_linear_1409_2583)"/>
<rect x="218.684" y="19.6257" width="2.7493" height="7.69804" rx="1.37465" fill="url(#paint23_linear_1409_2583)"/>
<rect x="227.094" y="15.2268" width="2.7493" height="16.4958" rx="1.37465" fill="url(#paint24_linear_1409_2583)"/>
<rect x="235.342" y="9.72827" width="2.7493" height="27.493" rx="1.37465" fill="url(#paint25_linear_1409_2583)"/>
<rect x="243.59" y="19.6257" width="2.7493" height="7.69804" rx="1.37465" fill="url(#paint26_linear_1409_2583)"/>
<rect x="252.003" y="15.2268" width="2.7493" height="16.4958" rx="1.37465" fill="url(#paint27_linear_1409_2583)"/>
<rect x="260.251" y="9.72827" width="2.7493" height="27.493" rx="1.37465" fill="url(#paint28_linear_1409_2583)"/>
<rect x="268.499" y="19.6257" width="2.7493" height="7.69804" rx="1.37465" fill="url(#paint29_linear_1409_2583)"/>
<rect x="276.908" y="15.2268" width="2.7493" height="16.4958" rx="1.37465" fill="url(#paint30_linear_1409_2583)"/>
<rect x="285.156" y="9.72827" width="2.7493" height="27.493" rx="1.37465" fill="url(#paint31_linear_1409_2583)"/>
<rect x="293.404" y="19.6257" width="2.7493" height="7.69804" rx="1.37465" fill="url(#paint32_linear_1409_2583)"/>
<rect x="310.261" y="15.2268" width="2.7493" height="16.4958" rx="1.37465" fill="url(#paint33_linear_1409_2583)"/>
<rect x="318.509" y="9.72827" width="2.7493" height="27.493" rx="1.37465" fill="url(#paint34_linear_1409_2583)"/>
<rect x="326.757" y="19.6257" width="2.7493" height="7.69804" rx="1.37465" fill="url(#paint35_linear_1409_2583)"/>
<rect x="335.167" y="15.2268" width="2.7493" height="16.4958" rx="1.37465" fill="url(#paint36_linear_1409_2583)"/>
<rect x="343.415" y="9.72827" width="2.7493" height="27.493" rx="1.37465" fill="url(#paint37_linear_1409_2583)"/>
<rect x="351.663" y="19.6257" width="2.7493" height="7.69804" rx="1.37465" fill="url(#paint38_linear_1409_2583)"/>
<rect x="360.076" y="15.2268" width="2.7493" height="16.4958" rx="1.37465" fill="url(#paint39_linear_1409_2583)"/>
<rect x="368.324" y="9.72827" width="2.7493" height="27.493" rx="1.37465" fill="url(#paint40_linear_1409_2583)"/>
<rect x="376.572" y="19.6257" width="2.7493" height="7.69804" rx="1.37465" fill="url(#paint41_linear_1409_2583)"/>
<rect x="384.981" y="15.2268" width="2.7493" height="16.4958" rx="1.37465" fill="url(#paint42_linear_1409_2583)"/>
<rect x="393.229" y="9.72827" width="2.7493" height="27.493" rx="1.37465" fill="url(#paint43_linear_1409_2583)"/>
<rect x="401.478" y="19.6257" width="2.7493" height="7.69804" rx="1.37465" fill="url(#paint44_linear_1409_2583)"/>
<rect x="418.283" y="15.4985" width="2.7493" height="16.4958" rx="1.37465" fill="url(#paint45_linear_1409_2583)"/>
<rect x="426.531" y="10" width="2.7493" height="27.493" rx="1.37465" fill="url(#paint46_linear_1409_2583)"/>
<rect x="434.779" y="19.8975" width="2.7493" height="7.69804" rx="1.37465" fill="url(#paint47_linear_1409_2583)"/>
<rect x="443.189" y="15.4985" width="2.7493" height="16.4958" rx="1.37465" fill="url(#paint48_linear_1409_2583)"/>
<rect x="451.438" y="10" width="2.7493" height="27.493" rx="1.37465" fill="url(#paint49_linear_1409_2583)"/>
<rect x="459.686" y="19.8975" width="2.7493" height="7.69804" rx="1.37465" fill="url(#paint50_linear_1409_2583)"/>
<rect x="468.099" y="15.4985" width="2.7493" height="16.4958" rx="1.37465" fill="url(#paint51_linear_1409_2583)"/>
<rect x="476.347" y="10" width="2.7493" height="27.493" rx="1.37465" fill="url(#paint52_linear_1409_2583)"/>
<rect x="484.595" y="19.8975" width="2.7493" height="7.69804" rx="1.37465" fill="url(#paint53_linear_1409_2583)"/>
<rect x="493.004" y="15.4985" width="2.7493" height="16.4958" rx="1.37465" fill="url(#paint54_linear_1409_2583)"/>
<rect x="501.252" y="10" width="2.7493" height="27.493" rx="1.37465" fill="url(#paint55_linear_1409_2583)"/>
<rect x="509.5" y="19.8975" width="2.7493" height="7.69804" rx="1.37465" fill="url(#paint56_linear_1409_2583)"/>
<rect x="526.283" y="15.4985" width="2.7493" height="16.4958" rx="1.37465" fill="url(#paint57_linear_1409_2583)"/>
<rect x="534.531" y="10" width="2.7493" height="27.493" rx="1.37465" fill="url(#paint58_linear_1409_2583)"/>
<rect x="542.779" y="19.8975" width="2.7493" height="7.69804" rx="1.37465" fill="url(#paint59_linear_1409_2583)"/>
<rect x="551.189" y="15.4985" width="2.7493" height="16.4958" rx="1.37465" fill="url(#paint60_linear_1409_2583)"/>
<rect x="559.438" y="10" width="2.7493" height="27.493" rx="1.37465" fill="url(#paint61_linear_1409_2583)"/>
<rect x="567.686" y="19.8975" width="2.7493" height="7.69804" rx="1.37465" fill="url(#paint62_linear_1409_2583)"/>
<rect x="576.099" y="15.4985" width="2.7493" height="16.4958" rx="1.37465" fill="url(#paint63_linear_1409_2583)"/>
<rect x="584.347" y="10" width="2.7493" height="27.493" rx="1.37465" fill="url(#paint64_linear_1409_2583)"/>
<rect x="592.595" y="19.8975" width="2.7493" height="7.69804" rx="1.37465" fill="url(#paint65_linear_1409_2583)"/>
</g>
<defs>
<linearGradient id="paint0_linear_1409_2583" x1="11.9109" y1="16.5827" x2="17.4276" y2="27.5097" gradientUnits="userSpaceOnUse">
<stop offset="0.0983" stop-color="#227F97"/>
<stop offset="0.8303" stop-color="#18ABAE"/>
</linearGradient>
<linearGradient id="paint1_linear_1409_2583" x1="20.1589" y1="11.9882" x2="31.4176" y2="25.3682" gradientUnits="userSpaceOnUse">
<stop offset="0.0983" stop-color="#227F97"/>
<stop offset="0.8303" stop-color="#18ABAE"/>
</linearGradient>
<linearGradient id="paint2_linear_1409_2583" x1="28.407" y1="20.2585" x2="29.8353" y2="26.321" gradientUnits="userSpaceOnUse">
<stop offset="0.0983" stop-color="#227F97"/>
<stop offset="0.8303" stop-color="#18ABAE"/>
</linearGradient>
<linearGradient id="paint3_linear_1409_2583" x1="36.8171" y1="16.5827" x2="42.3338" y2="27.5097" gradientUnits="userSpaceOnUse">
<stop offset="0.0983" stop-color="#227F97"/>
<stop offset="0.8303" stop-color="#18ABAE"/>
</linearGradient>
<linearGradient id="paint4_linear_1409_2583" x1="45.0652" y1="11.9882" x2="56.3238" y2="25.3682" gradientUnits="userSpaceOnUse">
<stop offset="0.0983" stop-color="#227F97"/>
<stop offset="0.8303" stop-color="#18ABAE"/>
</linearGradient>
<linearGradient id="paint5_linear_1409_2583" x1="53.3132" y1="20.2585" x2="54.7416" y2="26.321" gradientUnits="userSpaceOnUse">
<stop offset="0.0983" stop-color="#227F97"/>
<stop offset="0.8303" stop-color="#18ABAE"/>
</linearGradient>
<linearGradient id="paint6_linear_1409_2583" x1="61.7263" y1="16.5827" x2="67.243" y2="27.5097" gradientUnits="userSpaceOnUse">
<stop offset="0.0983" stop-color="#227F97"/>
<stop offset="0.8303" stop-color="#18ABAE"/>
</linearGradient>
<linearGradient id="paint7_linear_1409_2583" x1="69.9744" y1="11.9882" x2="81.233" y2="25.3682" gradientUnits="userSpaceOnUse">
<stop offset="0.0983" stop-color="#227F97"/>
<stop offset="0.8303" stop-color="#18ABAE"/>
</linearGradient>
<linearGradient id="paint8_linear_1409_2583" x1="78.2224" y1="20.2585" x2="79.6508" y2="26.321" gradientUnits="userSpaceOnUse">
<stop offset="0.0983" stop-color="#227F97"/>
<stop offset="0.8303" stop-color="#18ABAE"/>
</linearGradient>
<linearGradient id="paint9_linear_1409_2583" x1="95.2703" y1="16.5827" x2="100.787" y2="27.5097" gradientUnits="userSpaceOnUse">
<stop offset="0.0983" stop-color="#227F97"/>
<stop offset="0.8303" stop-color="#18ABAE"/>
</linearGradient>
<linearGradient id="paint10_linear_1409_2583" x1="103.518" y1="11.9882" x2="114.777" y2="25.3682" gradientUnits="userSpaceOnUse">
<stop offset="0.0983" stop-color="#227F97"/>
<stop offset="0.8303" stop-color="#18ABAE"/>
</linearGradient>
<linearGradient id="paint11_linear_1409_2583" x1="111.766" y1="20.2585" x2="113.195" y2="26.321" gradientUnits="userSpaceOnUse">
<stop offset="0.0983" stop-color="#227F97"/>
<stop offset="0.8303" stop-color="#18ABAE"/>
</linearGradient>
<linearGradient id="paint12_linear_1409_2583" x1="120.177" y1="16.5827" x2="125.693" y2="27.5097" gradientUnits="userSpaceOnUse">
<stop offset="0.0983" stop-color="#227F97"/>
<stop offset="0.8303" stop-color="#18ABAE"/>
</linearGradient>
<linearGradient id="paint13_linear_1409_2583" x1="128.425" y1="11.9882" x2="139.683" y2="25.3682" gradientUnits="userSpaceOnUse">
<stop offset="0.0983" stop-color="#227F97"/>
<stop offset="0.8303" stop-color="#18ABAE"/>
</linearGradient>
<linearGradient id="paint14_linear_1409_2583" x1="136.673" y1="20.2585" x2="138.101" y2="26.321" gradientUnits="userSpaceOnUse">
<stop offset="0.0983" stop-color="#227F97"/>
<stop offset="0.8303" stop-color="#18ABAE"/>
</linearGradient>
<linearGradient id="paint15_linear_1409_2583" x1="145.086" y1="16.5827" x2="150.602" y2="27.5097" gradientUnits="userSpaceOnUse">
<stop offset="0.0983" stop-color="#227F97"/>
<stop offset="0.8303" stop-color="#18ABAE"/>
</linearGradient>
<linearGradient id="paint16_linear_1409_2583" x1="153.334" y1="11.9882" x2="164.592" y2="25.3682" gradientUnits="userSpaceOnUse">
<stop offset="0.0983" stop-color="#227F97"/>
<stop offset="0.8303" stop-color="#18ABAE"/>
</linearGradient>
<linearGradient id="paint17_linear_1409_2583" x1="161.582" y1="20.2585" x2="163.01" y2="26.321" gradientUnits="userSpaceOnUse">
<stop offset="0.0983" stop-color="#227F97"/>
<stop offset="0.8303" stop-color="#18ABAE"/>
</linearGradient>
<linearGradient id="paint18_linear_1409_2583" x1="169.991" y1="16.5827" x2="175.508" y2="27.5097" gradientUnits="userSpaceOnUse">
<stop offset="0.0983" stop-color="#227F97"/>
<stop offset="0.8303" stop-color="#18ABAE"/>
</linearGradient>
<linearGradient id="paint19_linear_1409_2583" x1="178.239" y1="11.9882" x2="189.498" y2="25.3682" gradientUnits="userSpaceOnUse">
<stop offset="0.0983" stop-color="#227F97"/>
<stop offset="0.8303" stop-color="#18ABAE"/>
</linearGradient>
<linearGradient id="paint20_linear_1409_2583" x1="186.487" y1="20.2585" x2="187.915" y2="26.321" gradientUnits="userSpaceOnUse">
<stop offset="0.0983" stop-color="#227F97"/>
<stop offset="0.8303" stop-color="#18ABAE"/>
</linearGradient>
<linearGradient id="paint21_linear_1409_2583" x1="203.54" y1="16.5827" x2="209.056" y2="27.5097" gradientUnits="userSpaceOnUse">
<stop offset="0.0983" stop-color="#227F97"/>
<stop offset="0.8303" stop-color="#18ABAE"/>
</linearGradient>
<linearGradient id="paint22_linear_1409_2583" x1="211.788" y1="11.9882" x2="223.046" y2="25.3682" gradientUnits="userSpaceOnUse">
<stop offset="0.0983" stop-color="#227F97"/>
<stop offset="0.8303" stop-color="#18ABAE"/>
</linearGradient>
<linearGradient id="paint23_linear_1409_2583" x1="220.036" y1="20.2585" x2="221.464" y2="26.321" gradientUnits="userSpaceOnUse">
<stop offset="0.0983" stop-color="#227F97"/>
<stop offset="0.8303" stop-color="#18ABAE"/>
</linearGradient>
<linearGradient id="paint24_linear_1409_2583" x1="228.446" y1="16.5827" x2="233.963" y2="27.5097" gradientUnits="userSpaceOnUse">
<stop offset="0.0983" stop-color="#227F97"/>
<stop offset="0.8303" stop-color="#18ABAE"/>
</linearGradient>
<linearGradient id="paint25_linear_1409_2583" x1="236.694" y1="11.9882" x2="247.953" y2="25.3682" gradientUnits="userSpaceOnUse">
<stop offset="0.0983" stop-color="#227F97"/>
<stop offset="0.8303" stop-color="#18ABAE"/>
</linearGradient>
<linearGradient id="paint26_linear_1409_2583" x1="244.942" y1="20.2585" x2="246.37" y2="26.321" gradientUnits="userSpaceOnUse">
<stop offset="0.0983" stop-color="#227F97"/>
<stop offset="0.8303" stop-color="#18ABAE"/>
</linearGradient>
<linearGradient id="paint27_linear_1409_2583" x1="253.355" y1="16.5827" x2="258.872" y2="27.5097" gradientUnits="userSpaceOnUse">
<stop offset="0.0983" stop-color="#227F97"/>
<stop offset="0.8303" stop-color="#18ABAE"/>
</linearGradient>
<linearGradient id="paint28_linear_1409_2583" x1="261.603" y1="11.9882" x2="272.862" y2="25.3682" gradientUnits="userSpaceOnUse">
<stop offset="0.0983" stop-color="#227F97"/>
<stop offset="0.8303" stop-color="#18ABAE"/>
</linearGradient>
<linearGradient id="paint29_linear_1409_2583" x1="269.851" y1="20.2585" x2="271.28" y2="26.321" gradientUnits="userSpaceOnUse">
<stop offset="0.0983" stop-color="#227F97"/>
<stop offset="0.8303" stop-color="#18ABAE"/>
</linearGradient>
<linearGradient id="paint30_linear_1409_2583" x1="278.261" y1="16.5827" x2="283.777" y2="27.5097" gradientUnits="userSpaceOnUse">
<stop offset="0.0983" stop-color="#227F97"/>
<stop offset="0.8303" stop-color="#18ABAE"/>
</linearGradient>
<linearGradient id="paint31_linear_1409_2583" x1="286.509" y1="11.9882" x2="297.767" y2="25.3682" gradientUnits="userSpaceOnUse">
<stop offset="0.0983" stop-color="#227F97"/>
<stop offset="0.8303" stop-color="#18ABAE"/>
</linearGradient>
<linearGradient id="paint32_linear_1409_2583" x1="294.757" y1="20.2585" x2="296.185" y2="26.321" gradientUnits="userSpaceOnUse">
<stop offset="0.0983" stop-color="#227F97"/>
<stop offset="0.8303" stop-color="#18ABAE"/>
</linearGradient>
<linearGradient id="paint33_linear_1409_2583" x1="311.613" y1="16.5827" x2="317.13" y2="27.5097" gradientUnits="userSpaceOnUse">
<stop offset="0.0983" stop-color="#227F97"/>
<stop offset="0.8303" stop-color="#18ABAE"/>
</linearGradient>
<linearGradient id="paint34_linear_1409_2583" x1="319.861" y1="11.9882" x2="331.12" y2="25.3682" gradientUnits="userSpaceOnUse">
<stop offset="0.0983" stop-color="#227F97"/>
<stop offset="0.8303" stop-color="#18ABAE"/>
</linearGradient>
<linearGradient id="paint35_linear_1409_2583" x1="328.109" y1="20.2585" x2="329.537" y2="26.321" gradientUnits="userSpaceOnUse">
<stop offset="0.0983" stop-color="#227F97"/>
<stop offset="0.8303" stop-color="#18ABAE"/>
</linearGradient>
<linearGradient id="paint36_linear_1409_2583" x1="336.519" y1="16.5827" x2="342.036" y2="27.5097" gradientUnits="userSpaceOnUse">
<stop offset="0.0983" stop-color="#227F97"/>
<stop offset="0.8303" stop-color="#18ABAE"/>
</linearGradient>
<linearGradient id="paint37_linear_1409_2583" x1="344.767" y1="11.9882" x2="356.026" y2="25.3682" gradientUnits="userSpaceOnUse">
<stop offset="0.0983" stop-color="#227F97"/>
<stop offset="0.8303" stop-color="#18ABAE"/>
</linearGradient>
<linearGradient id="paint38_linear_1409_2583" x1="353.015" y1="20.2585" x2="354.444" y2="26.321" gradientUnits="userSpaceOnUse">
<stop offset="0.0983" stop-color="#227F97"/>
<stop offset="0.8303" stop-color="#18ABAE"/>
</linearGradient>
<linearGradient id="paint39_linear_1409_2583" x1="361.428" y1="16.5827" x2="366.945" y2="27.5097" gradientUnits="userSpaceOnUse">
<stop offset="0.0983" stop-color="#227F97"/>
<stop offset="0.8303" stop-color="#18ABAE"/>
</linearGradient>
<linearGradient id="paint40_linear_1409_2583" x1="369.677" y1="11.9882" x2="380.935" y2="25.3682" gradientUnits="userSpaceOnUse">
<stop offset="0.0983" stop-color="#227F97"/>
<stop offset="0.8303" stop-color="#18ABAE"/>
</linearGradient>
<linearGradient id="paint41_linear_1409_2583" x1="377.925" y1="20.2585" x2="379.353" y2="26.321" gradientUnits="userSpaceOnUse">
<stop offset="0.0983" stop-color="#227F97"/>
<stop offset="0.8303" stop-color="#18ABAE"/>
</linearGradient>
<linearGradient id="paint42_linear_1409_2583" x1="386.334" y1="16.5827" x2="391.85" y2="27.5097" gradientUnits="userSpaceOnUse">
<stop offset="0.0983" stop-color="#227F97"/>
<stop offset="0.8303" stop-color="#18ABAE"/>
</linearGradient>
<linearGradient id="paint43_linear_1409_2583" x1="394.582" y1="11.9882" x2="405.84" y2="25.3682" gradientUnits="userSpaceOnUse">
<stop offset="0.0983" stop-color="#227F97"/>
<stop offset="0.8303" stop-color="#18ABAE"/>
</linearGradient>
<linearGradient id="paint44_linear_1409_2583" x1="402.83" y1="20.2585" x2="404.258" y2="26.321" gradientUnits="userSpaceOnUse">
<stop offset="0.0983" stop-color="#227F97"/>
<stop offset="0.8303" stop-color="#18ABAE"/>
</linearGradient>
<linearGradient id="paint45_linear_1409_2583" x1="419.636" y1="16.8545" x2="425.152" y2="27.7814" gradientUnits="userSpaceOnUse">
<stop offset="0.0983" stop-color="#227F97"/>
<stop offset="0.8303" stop-color="#18ABAE"/>
</linearGradient>
<linearGradient id="paint46_linear_1409_2583" x1="427.884" y1="12.2599" x2="439.142" y2="25.64" gradientUnits="userSpaceOnUse">
<stop offset="0.0983" stop-color="#227F97"/>
<stop offset="0.8303" stop-color="#18ABAE"/>
</linearGradient>
<linearGradient id="paint47_linear_1409_2583" x1="436.132" y1="20.5302" x2="437.56" y2="26.5927" gradientUnits="userSpaceOnUse">
<stop offset="0.0983" stop-color="#227F97"/>
<stop offset="0.8303" stop-color="#18ABAE"/>
</linearGradient>
<linearGradient id="paint48_linear_1409_2583" x1="444.542" y1="16.8545" x2="450.058" y2="27.7814" gradientUnits="userSpaceOnUse">
<stop offset="0.0983" stop-color="#227F97"/>
<stop offset="0.8303" stop-color="#18ABAE"/>
</linearGradient>
<linearGradient id="paint49_linear_1409_2583" x1="452.79" y1="12.2599" x2="464.048" y2="25.64" gradientUnits="userSpaceOnUse">
<stop offset="0.0983" stop-color="#227F97"/>
<stop offset="0.8303" stop-color="#18ABAE"/>
</linearGradient>
<linearGradient id="paint50_linear_1409_2583" x1="461.038" y1="20.5302" x2="462.466" y2="26.5927" gradientUnits="userSpaceOnUse">
<stop offset="0.0983" stop-color="#227F97"/>
<stop offset="0.8303" stop-color="#18ABAE"/>
</linearGradient>
<linearGradient id="paint51_linear_1409_2583" x1="469.451" y1="16.8545" x2="474.968" y2="27.7814" gradientUnits="userSpaceOnUse">
<stop offset="0.0983" stop-color="#227F97"/>
<stop offset="0.8303" stop-color="#18ABAE"/>
</linearGradient>
<linearGradient id="paint52_linear_1409_2583" x1="477.699" y1="12.2599" x2="488.958" y2="25.64" gradientUnits="userSpaceOnUse">
<stop offset="0.0983" stop-color="#227F97"/>
<stop offset="0.8303" stop-color="#18ABAE"/>
</linearGradient>
<linearGradient id="paint53_linear_1409_2583" x1="485.947" y1="20.5302" x2="487.375" y2="26.5927" gradientUnits="userSpaceOnUse">
<stop offset="0.0983" stop-color="#227F97"/>
<stop offset="0.8303" stop-color="#18ABAE"/>
</linearGradient>
<linearGradient id="paint54_linear_1409_2583" x1="494.356" y1="16.8545" x2="499.873" y2="27.7814" gradientUnits="userSpaceOnUse">
<stop offset="0.0983" stop-color="#227F97"/>
<stop offset="0.8303" stop-color="#18ABAE"/>
</linearGradient>
<linearGradient id="paint55_linear_1409_2583" x1="502.604" y1="12.2599" x2="513.863" y2="25.64" gradientUnits="userSpaceOnUse">
<stop offset="0.0983" stop-color="#227F97"/>
<stop offset="0.8303" stop-color="#18ABAE"/>
</linearGradient>
<linearGradient id="paint56_linear_1409_2583" x1="510.852" y1="20.5302" x2="512.281" y2="26.5927" gradientUnits="userSpaceOnUse">
<stop offset="0.0983" stop-color="#227F97"/>
<stop offset="0.8303" stop-color="#18ABAE"/>
</linearGradient>
<linearGradient id="paint57_linear_1409_2583" x1="527.636" y1="16.8545" x2="533.152" y2="27.7814" gradientUnits="userSpaceOnUse">
<stop offset="0.0983" stop-color="#227F97"/>
<stop offset="0.8303" stop-color="#18ABAE"/>
</linearGradient>
<linearGradient id="paint58_linear_1409_2583" x1="535.884" y1="12.2599" x2="547.142" y2="25.64" gradientUnits="userSpaceOnUse">
<stop offset="0.0983" stop-color="#227F97"/>
<stop offset="0.8303" stop-color="#18ABAE"/>
</linearGradient>
<linearGradient id="paint59_linear_1409_2583" x1="544.132" y1="20.5302" x2="545.56" y2="26.5927" gradientUnits="userSpaceOnUse">
<stop offset="0.0983" stop-color="#227F97"/>
<stop offset="0.8303" stop-color="#18ABAE"/>
</linearGradient>
<linearGradient id="paint60_linear_1409_2583" x1="552.542" y1="16.8545" x2="558.058" y2="27.7814" gradientUnits="userSpaceOnUse">
<stop offset="0.0983" stop-color="#227F97"/>
<stop offset="0.8303" stop-color="#18ABAE"/>
</linearGradient>
<linearGradient id="paint61_linear_1409_2583" x1="560.79" y1="12.2599" x2="572.048" y2="25.64" gradientUnits="userSpaceOnUse">
<stop offset="0.0983" stop-color="#227F97"/>
<stop offset="0.8303" stop-color="#18ABAE"/>
</linearGradient>
<linearGradient id="paint62_linear_1409_2583" x1="569.038" y1="20.5302" x2="570.466" y2="26.5927" gradientUnits="userSpaceOnUse">
<stop offset="0.0983" stop-color="#227F97"/>
<stop offset="0.8303" stop-color="#18ABAE"/>
</linearGradient>
<linearGradient id="paint63_linear_1409_2583" x1="577.451" y1="16.8545" x2="582.968" y2="27.7814" gradientUnits="userSpaceOnUse">
<stop offset="0.0983" stop-color="#227F97"/>
<stop offset="0.8303" stop-color="#18ABAE"/>
</linearGradient>
<linearGradient id="paint64_linear_1409_2583" x1="585.699" y1="12.2599" x2="596.958" y2="25.64" gradientUnits="userSpaceOnUse">
<stop offset="0.0983" stop-color="#227F97"/>
<stop offset="0.8303" stop-color="#18ABAE"/>
</linearGradient>
<linearGradient id="paint65_linear_1409_2583" x1="593.947" y1="20.5302" x2="595.375" y2="26.5927" gradientUnits="userSpaceOnUse">
<stop offset="0.0983" stop-color="#227F97"/>
<stop offset="0.8303" stop-color="#18ABAE"/>
</linearGradient>
</defs>
</svg>
