<svg width="28" height="28" viewBox="0 0 28 28" fill="none" xmlns="http://www.w3.org/2000/svg">
<path d="M5.9745 20.7713C8.42265 19.3876 11.1878 18.6624 14 18.6667C16.9167 18.6667 19.6548 19.4308 22.0255 20.7713M17.5 11.6667C17.5 12.5949 17.1313 13.4852 16.4749 14.1415C15.8185 14.7979 14.9283 15.1667 14 15.1667C13.0717 15.1667 12.1815 14.7979 11.5251 14.1415C10.8687 13.4852 10.5 12.5949 10.5 11.6667C10.5 10.7384 10.8687 9.84817 11.5251 9.19179C12.1815 8.53541 13.0717 8.16667 14 8.16667C14.9283 8.16667 15.8185 8.53541 16.4749 9.19179C17.1313 9.84817 17.5 10.7384 17.5 11.6667ZM24.5 14C24.5 15.3789 24.2284 16.7443 23.7007 18.0182C23.1731 19.2921 22.3996 20.4496 21.4246 21.4246C20.4496 22.3996 19.2921 23.1731 18.0182 23.7007C16.7443 24.2284 15.3789 24.5 14 24.5C12.6211 24.5 11.2557 24.2284 9.98182 23.7007C8.70791 23.1731 7.55039 22.3996 6.57538 21.4246C5.60036 20.4496 4.82694 19.2921 4.29926 18.0182C3.77159 16.7443 3.5 15.3789 3.5 14C3.5 11.2152 4.60625 8.54451 6.57538 6.57538C8.54451 4.60625 11.2152 3.5 14 3.5C16.7848 3.5 19.4555 4.60625 21.4246 6.57538C23.3938 8.54451 24.5 11.2152 24.5 14Z" stroke="#FFFFFD" stroke-width="2" stroke-linecap="round" stroke-linejoin="round"/>
</svg>
