<svg width="578" height="29" viewBox="0 0 578 29" fill="none" xmlns="http://www.w3.org/2000/svg">
<path d="M258.977 28.9924L257.045 28.9902C255.912 25.0587 255.113 21.1997 254.472 18.0984C253.813 14.9065 253.256 12.2038 252.615 10.9093C252.29 11.3791 251.937 12.0507 251.556 12.9206L249.624 12.9223C249.438 12.7272 249.28 12.5763 249.122 12.4597C248.639 12.9223 248.221 13.7049 247.859 14.3759C246.586 16.7382 246.308 16.7382 244.747 16.7388C244.013 16.7388 243.577 16.7393 243.149 16.5276C242.852 16.621 242.49 16.6199 241.914 16.6199C240.177 16.6188 239.815 16.6183 238.347 11.0768C237.753 8.84881 237.102 6.38427 236.201 5.39215C234.641 6.79272 233.805 10.5351 232.932 14.476C232.031 18.5412 231.093 22.7445 229.272 24.2678C228.91 24.5436 228.631 24.584 227.609 24.5795C225.844 24.5768 225.306 24.5757 223.717 17.465C223.206 15.1718 222.677 12.8211 222.008 11.6815C221.952 11.7533 221.897 11.8323 221.841 11.9197L219.909 11.9208C219.649 11.682 219.426 11.5107 219.231 11.3869C218.785 11.7384 218.376 12.3259 218.005 12.8648C216.593 14.9137 216.166 14.9148 214.605 14.917C214.419 14.9176 214.252 14.9165 214.103 14.9132C212.803 16.3861 212.32 16.3867 211.038 16.385C209.255 16.3839 209.022 16.3839 207.174 11.8489C206.691 10.6562 206.097 9.20642 205.353 7.60963C204.573 8.79409 203.979 11.1636 203.44 13.3225C202.037 18.9424 201.731 18.9424 200.04 18.943C199.176 18.9424 198.731 18.9435 198.285 18.4699C197.969 18.555 197.607 18.555 197.059 18.555C195.563 18.5544 195.294 18.5544 194.095 16.2894C193.873 15.8622 193.631 15.4067 193.38 15.0464C192.99 15.5725 192.563 16.4038 192.098 17.5352H190.157C189.758 16.5542 189.405 15.9058 189.117 15.4836C188.819 15.9699 188.532 16.6271 188.271 17.2401C187.092 19.9848 186.86 19.9848 185.336 19.9848C183.98 19.9843 183.646 19.9848 182.726 18.3654C181.398 17.4838 180.515 16.2458 179.819 15.2509C179.354 14.5926 178.908 13.9586 178.435 13.5983C178.11 13.7906 177.719 14.0963 177.227 14.576C175.555 15.121 174.617 18.6771 173.79 21.8149C172.295 27.473 171.933 27.473 170.196 27.4741C168.932 27.473 168.635 27.4746 167.855 26.3958C167.149 24.6575 166.582 23.1364 166.09 21.8359C165.087 19.1569 164.39 17.3114 163.619 16.5757C163.257 16.8068 162.83 17.1494 162.347 17.6032L160.414 17.6027C160.136 17.2882 159.885 17.0665 159.671 16.9096C159.3 17.2296 158.965 17.7049 158.668 18.1178C157.516 19.7273 157.293 19.7273 155.835 19.7273C154.804 19.7295 154.265 19.7278 153.504 18.9568C153.299 18.9662 153.076 18.9662 152.788 18.9656C150.856 18.9634 150.392 18.9629 148.655 11.2979C148.051 8.60562 147.373 5.63092 146.407 2.94861C145.478 5.3297 144.828 8.50668 144.233 11.3963C142.701 18.8645 142.376 18.8651 140.583 18.8656C139.283 18.8651 138.967 18.8662 138.103 17.2981C137.267 16.8482 136.635 16.7305 136.301 16.7023C134.034 16.6962 133.31 16.6177 131.341 12.1706C130.468 13.6248 129.845 15.5488 129.279 17.3081C127.662 22.3057 127.235 22.3062 125.414 22.309C124.3 22.3084 123.947 22.3112 123.241 21.7408C121.699 19.2359 120.798 15.5731 119.999 12.3419C119.312 9.53528 118.652 6.85518 117.714 5.84648L117.51 6.00898L116.934 5.9515C115.355 6.64183 114.491 10.4771 113.581 14.5207C112.782 18.0714 111.871 22.0957 110.311 25.2865H108.37C107.125 22.7125 106.28 19.6156 105.602 17.1273C105.109 15.3177 104.663 13.6712 104.18 12.7195C103.79 13.3302 103.354 14.2681 102.871 15.5278H100.929C100.651 14.8877 100.4 14.4246 100.177 14.0918C99.7218 14.9469 99.3131 16.369 98.9229 17.7596C97.3717 23.2011 96.8608 23.2016 95.1517 23.2049C94.0463 23.2094 93.842 23.158 93.5076 22.9457C91.9749 22.1349 91.0739 18.5843 90.2844 15.4521C89.885 13.8785 89.5041 12.3602 89.0861 11.4112C88.7517 12.0247 88.3988 12.9228 88.0086 14.1012L87.9901 14.1653L87.2098 14.1559C86.2252 14.2565 85.3613 14.7855 84.8319 15.1072C83.7451 15.7704 83.5129 15.8345 82.101 15.8345C82.0917 15.8345 82.0824 15.8345 82.0824 15.8345C81.3672 15.834 80.847 15.834 80.234 15.6129C78.0697 21.3064 77.3359 21.313 75.6825 21.329C74.8279 21.3373 74.4192 21.2986 74.1034 21.2577C73.8619 21.3169 73.5275 21.4236 73.1466 21.6165L71.2146 21.6153C70.1928 20.9908 69.4404 20.0479 68.8367 19.2901C68.6323 19.038 68.4372 18.7915 68.2515 18.5799C67.5827 19.5383 66.7931 21.6142 65.7156 25.1411L63.7836 25.1455C61.9351 24.1816 60.9877 19.3503 60.0774 14.6783C59.4272 11.3205 58.7491 7.88157 57.7459 5.91668C56.5755 9.40208 55.8138 12.363 55.1358 15.0154C53.9839 19.4891 53.0829 23.0225 50.8443 26.2377C50.2406 26.6085 49.8597 26.645 48.7544 26.6456C46.8037 26.6417 46.33 26.4737 44.6766 21.6728C43.8871 19.3813 42.9954 16.7835 41.472 14.9309C41.1562 14.4268 40.8775 14.0802 40.6453 13.842C40.3295 14.198 40.0415 14.6843 39.7907 15.1116C38.7504 16.8604 38.6296 16.8587 37.162 16.8604C36.0752 16.8604 35.5365 16.8604 34.7377 15.5703C34.106 16.028 33.5673 16.0285 32.7313 16.0274C31.2172 16.0274 31.0222 16.0274 29.7496 14.2217C28.9786 13.1202 28.0962 11.871 26.6379 11.5151C26.3592 11.3017 26.1177 11.1475 25.904 11.0359C25.1424 11.6267 24.5293 13.0649 23.7955 14.7899C23.136 16.3342 22.3093 18.2554 21.1203 20.217L19.1883 20.2164C18.5009 18.5666 17.6649 16.7261 16.894 15.8235C16.6153 16.1175 16.3366 16.4972 16.0394 16.888C15.4449 17.6795 14.7018 18.6644 13.6986 19.4857L11.7666 19.4835C11.2278 17.9293 10.7355 16.8051 10.2897 16.1192C9.99242 16.6183 9.71376 17.2882 9.43509 17.9464C8.11609 21.072 7.43801 21.8514 6.00754 21.916L5.67315 21.9315L4.41917 21.9232L4.33557 21.8834C2.93297 21.2036 2.0784 20.5099 1.31672 19.8986C0.443582 19.1945 -0.457426 18.466 -1.76714 18.3947C-1.70212 18.398 -1.59065 18.3997 -1.47919 18.4002L-2.91895 18.3455C-2.213 18.2913 -1.46061 18.293 -1.07048 18.2985C1.0938 18.3311 1.72543 18.65 3.25807 19.8914C3.85255 20.3751 4.52134 20.9101 5.45951 21.4479C6.32336 20.7216 6.98286 19.1602 7.50303 17.9442C8.64555 15.2464 8.74773 15.2453 10.2711 15.2476C11.5529 15.2476 12.0917 15.2481 13.1877 18.0625C13.5314 17.6524 13.838 17.2478 14.1166 16.8841C15.3985 15.1884 15.4914 15.189 16.9311 15.1895C18.2687 15.1901 18.8539 15.1906 20.2844 18.2659C20.9253 17.0063 21.4362 15.8141 21.8727 14.7883C23.6283 10.6755 23.9627 10.675 25.8205 10.6728C27.0094 10.6717 27.4831 10.6705 28.5606 11.5013C30.0375 11.8589 30.92 13.113 31.7002 14.219C32.0532 14.7236 32.4155 15.2382 32.7963 15.5748C33.1307 15.3227 33.5487 14.9143 34.0596 14.2632L35.9916 14.2643C36.4468 15.2149 36.8369 15.8207 37.1527 16.1999C37.4035 15.8843 37.645 15.4847 37.868 15.1099C38.9733 13.2606 39.1591 13.2606 40.6267 13.2606C40.636 13.2606 40.636 13.2606 40.6453 13.2606C41.9457 13.2606 42.3823 13.2694 43.4226 14.9286C44.946 16.7819 45.8377 19.3802 46.6273 21.6728C47.3146 23.6571 47.9648 25.5518 48.8658 26.2692C48.8844 26.2576 48.903 26.2454 48.9309 26.2333C51.1602 23.022 52.0705 19.4891 53.213 15.0165C53.9932 11.9783 54.8757 8.53487 56.3619 4.3619L58.2939 4.35582C60.1703 5.11635 61.0806 9.76134 62.0373 14.6794C62.6875 17.9984 63.347 21.3976 64.3409 23.431C64.9261 21.6187 65.4184 20.3353 65.8457 19.4587C66.6259 17.8669 66.9046 17.8669 68.2143 17.8658C69.6634 17.8658 69.6634 17.8646 70.7966 19.2879C71.2703 19.8837 71.8369 20.5945 72.5522 21.1732C72.9609 21.1085 73.3696 21.1002 73.8712 21.0964C74.4935 21.0919 74.9022 21.1102 75.2087 21.1367C76.1562 20.6774 77.1408 18.8081 78.6642 14.6838L80.5962 14.681C81.2186 15.1519 81.7109 15.4183 82.0824 15.5676C82.3797 15.4366 82.6676 15.257 82.9277 15.1C84.0795 14.3991 84.739 14.1311 86.1044 14.0675C87.3213 10.3566 87.795 10.3544 89.1604 10.3583C90.786 10.3583 90.9532 10.3583 92.2443 15.4526C92.9688 18.3129 93.777 21.5214 95.0774 22.6699C95.8762 21.7386 96.4986 19.5758 97.0094 17.7602C98.3006 13.2257 98.5142 13.2257 100.149 13.2252C100.892 13.2268 101.338 13.2252 101.756 13.5999C102.611 11.8003 103.112 11.8025 104.264 11.8008C105.936 11.8008 106.112 11.8008 107.561 17.1279C108.044 18.9126 108.62 21.0101 109.363 23.0032C110.367 20.2955 111.045 17.2666 111.667 14.5213C112.197 12.1844 112.689 9.9769 113.302 8.39835C114.166 6.16705 114.927 5.8404 115.884 5.78292C116.432 5.36949 116.757 5.3518 117.835 5.35401C119.823 5.35678 120.306 5.59279 121.959 12.3425C122.758 15.5731 123.659 19.2354 125.201 21.7375C125.257 21.7789 125.303 21.8165 125.349 21.8514C126.148 21.0577 126.771 19.158 127.365 17.3081C128.173 14.7999 129.093 11.9567 130.7 10.6136L132.632 10.6158C134.638 15.42 135.604 16.4729 136.617 16.6C138.103 16.6067 138.892 16.6636 140.063 17.2926C140.23 17.6038 140.388 17.8514 140.537 18.0481C141.215 16.799 141.753 14.1543 142.32 11.3963C143.119 7.51456 144.02 3.11498 145.562 0.819568L147.494 0.820121C148.961 3.97942 149.844 7.86719 150.615 11.2973C151.339 14.4997 151.98 17.3506 152.891 18.4323C152.918 18.4046 152.956 18.3753 152.993 18.3444L154.925 18.345C155.259 18.7733 155.556 19.0629 155.807 19.258C156.151 18.9469 156.467 18.5019 156.745 18.1139C157.925 16.4663 158.185 16.4663 159.643 16.4657C160.433 16.4657 160.907 16.4657 161.408 16.7548C162.244 16.1441 162.765 16.1441 163.74 16.1457C165.69 16.1479 165.895 16.1479 168.031 21.8337C168.514 23.1336 169.09 24.6547 169.796 26.3924C169.917 26.5555 170.028 26.6926 170.13 26.8075C170.799 25.8309 171.338 23.7969 171.858 21.8132C172.722 18.5185 173.623 15.111 175.314 14.5644C176.67 13.2152 177.209 13.2169 178.509 13.2158C180.088 13.2163 180.33 13.2163 181.76 15.2464C182.466 16.2402 183.339 17.4766 184.667 18.3588C184.9 18.7694 185.113 19.0729 185.299 19.2967C185.689 18.754 186.033 17.942 186.339 17.2368C187.435 14.6744 187.519 14.6761 189.089 14.6738C190.008 14.6738 190.519 14.6738 191.114 15.525C191.838 14.2969 192.396 14.2963 193.408 14.2963C194.876 14.2958 194.987 14.2958 196.037 16.2855C196.343 16.8753 196.706 17.5562 197.105 18.0017C197.254 17.8597 197.421 17.6767 197.607 17.4407L199.539 17.4413C199.697 17.7259 199.845 17.9547 199.975 18.1382C200.551 17.1218 201.034 15.1989 201.499 13.3208C203.124 6.78056 203.719 6.77891 205.465 6.77448C206.645 6.7684 206.756 6.84026 206.97 6.94417C207.861 8.8057 208.549 10.492 209.106 11.8467C209.868 13.7204 210.481 15.2067 211.122 15.8948C211.512 15.5996 211.967 15.1486 212.469 14.544L214.401 14.5412C214.438 14.5616 214.475 14.581 214.512 14.5992C215.116 14.2267 215.627 13.4866 216.054 12.8615C217.345 10.9939 217.661 10.9939 219.166 10.9933C219.76 10.9928 220.206 10.9928 220.606 11.1177C220.94 10.9049 221.349 10.9066 222.064 10.9054C223.81 10.9066 224.172 10.9066 225.649 17.4645C226.216 19.9826 226.838 22.7633 227.684 23.9367C229.281 22.2029 230.154 18.2786 231 14.4754C231.966 10.1361 232.876 6.03772 234.78 5.03234C234.985 4.93948 235.152 4.86431 236.294 4.86984C238.059 4.87481 238.654 4.87647 240.298 11.0762C240.809 13.0096 241.338 14.9922 241.998 15.9539C242.063 15.8793 242.137 15.7953 242.202 15.7008L244.134 15.7002C244.338 15.9368 244.533 16.1159 244.701 16.2513C245.165 15.792 245.574 15.0287 245.927 14.3732C247.218 11.9849 247.534 11.9849 249.066 11.9843C249.456 11.9832 249.772 11.9838 250.042 12.0164C251.017 10.0217 251.463 10.0195 252.708 10.0222C254.519 10.0228 254.751 10.0228 256.423 18.0984C256.952 20.6647 257.593 23.7505 258.439 26.9661C259.563 24.5381 260.269 20.7537 261.002 16.8084C261.875 12.1004 262.786 7.23213 264.486 3.57539L264.569 3.40515L266.278 3.54886C267.969 3.69091 268.758 5.89623 269.855 9.51096C270.319 11.0392 270.793 12.6039 271.35 13.4402C271.527 13.2423 271.712 12.982 271.926 12.6399L273.858 12.6404C274.23 13.7746 274.573 14.6407 274.889 15.2348C275.242 14.4738 275.567 13.3639 275.883 12.2756C277.286 7.5107 277.676 7.51014 279.32 7.50904C279.84 7.50904 280.193 7.50848 280.462 7.5726C280.722 7.53944 281.02 7.53999 281.456 7.54054C283.398 7.54275 283.862 7.54331 285.599 15.478C286.258 18.4881 286.992 21.8381 288.088 24.7603C289.082 22.503 289.751 18.1283 290.401 13.8586C292.12 2.60704 292.696 2.60593 294.609 2.60262C295.724 2.59819 295.872 2.65402 296.151 2.85797C297.656 5.45406 298.538 7.57149 299.328 9.44021C300.405 12.0092 301.269 14.0681 303.229 16.0705C304.149 14.7932 304.817 11.5903 305.412 8.69516C305.83 6.6551 306.266 4.54484 306.796 2.97791C307.688 0.313284 308.301 0.311074 309.648 0.305547C310.651 0.30223 310.883 0.364687 311.013 0.406693C312.555 4.87537 313.447 10.1493 314.236 14.8021C315.044 19.5576 315.769 23.8035 316.93 25.5125C318.528 22.3969 319.401 18.9004 320.246 15.5101C321.156 11.8384 322.104 8.0413 323.962 4.70016L325.894 4.69684C328.104 5.99958 329.005 9.99016 330.139 15.0419C330.752 17.7851 331.439 20.8156 332.433 23.9146C333.603 20.7946 334.337 17.8724 335.043 15.0276C336.009 11.1669 336.919 7.52064 338.824 3.53836C339.297 3.18296 339.585 3.15146 340.663 3.15422C342.52 3.15699 343.013 3.15809 344.657 9.78732C345.539 13.3429 346.45 17.0195 348.177 17.6364C348.382 17.9768 348.577 18.235 348.744 18.4312C349.162 17.8503 349.533 16.9488 349.849 16.1684C350.973 13.4452 351.131 13.4452 352.645 13.4452C352.645 13.4452 352.645 13.4452 352.654 13.4452C353.936 13.4452 354.419 13.4496 355.423 15.745C355.757 15.7124 356.138 15.7074 356.565 15.708C358.423 15.7124 358.794 15.845 360.485 17.8575C360.866 18.309 361.293 18.8247 361.813 19.3774C362.138 18.796 362.436 18.2626 362.714 17.7746C365.046 13.5679 365.38 13.2722 367.832 13.2594C369.049 13.2523 369.671 13.3346 370.48 13.5214C371.938 13.7304 372.755 15.6151 373.759 18.2543C374.111 19.2039 374.483 20.1733 374.882 20.8023C375.189 20.39 375.57 19.7505 376.006 18.7739L377.948 18.7733C378.106 19.0474 378.245 19.2674 378.375 19.4448C378.932 18.4909 379.397 16.7178 379.861 14.9861C381.403 9.13899 381.868 9.13788 383.623 9.13567C384.654 9.1329 384.951 9.16109 385.388 9.50377C386.846 11.2459 387.72 13.9155 388.5 16.2706C389.039 17.9061 389.549 19.4752 390.162 20.2607C390.376 20.055 390.618 19.7704 390.896 19.3763H392.838C392.856 19.4039 392.875 19.4305 392.893 19.4559C393.646 18.1692 394.222 15.3006 394.779 12.5044C396.339 4.67307 397.036 3.54609 398.782 3.49635L399.293 3.48198L400.231 3.51348L400.269 3.53891C402.359 4.93617 403.278 8.41493 404.337 12.4431C405.154 15.5433 406.083 19.0574 407.709 22.1515C407.867 22.409 408.015 22.6152 408.145 22.7805C408.684 21.9332 409.149 20.3994 409.567 18.996C411.006 14.2057 411.397 14.2051 413.078 14.2035C414.22 14.2018 414.527 14.2018 415.149 14.9016C416.97 15.3443 417.908 17.1804 418.809 18.9568C419.543 20.39 420.351 21.9823 421.633 22.5754C423.026 22.0586 423.816 20.9333 424.652 19.7527C425.478 18.5804 426.416 17.2517 428.098 16.2933C428.404 16.1634 428.692 16.0927 429.807 16.0943C431.757 16.1004 432.343 16.3198 434.005 21.6115C434.618 23.5642 435.297 25.7093 436.29 27.1574C438.046 24.0213 438.863 20.38 439.932 15.5587C440.693 12.1374 441.557 8.25907 442.969 3.50685L444.901 3.50298C446.666 4.58077 447.595 9.88791 448.487 15.0209C449.165 18.9142 449.861 22.9148 450.883 24.4193C452.035 23.0972 452.797 21.3865 453.475 19.8566C454.989 16.4309 455.295 16.4309 456.995 16.4298C458.203 16.4276 458.695 16.4276 459.772 17.5623C461.026 17.6944 461.723 18.2648 462.81 19.5056C463.033 19.7638 463.274 20.039 463.525 20.2601C464.036 19.7997 464.63 18.98 465.29 17.8083L467.231 17.8088C467.631 18.8137 467.984 19.4885 468.272 19.9362C468.727 19.0613 469.135 17.5977 469.563 16.0794C470.343 13.3009 471.235 10.1521 472.73 8.93061L472.786 8.8875L474.012 8.87976L474.467 8.89745C476.343 8.98533 477.087 10.0869 478.508 13.5784C479.214 15.3122 479.938 17.0936 481.09 18.1073C481.796 17.4789 482.353 16.6338 482.827 15.9147C483.923 14.2444 483.886 14.2449 485.4 14.2449C486.71 14.2455 486.942 14.2455 487.676 15.6936C488.047 16.4204 488.456 17.4661 488.92 18.8645C490.62 16.4801 490.992 16.4801 492.487 16.479C493.992 16.4779 494.196 16.4795 496.008 18.2554C497.132 16.7498 497.847 14.2261 498.544 11.7693C500.243 5.77905 500.838 5.52978 502.844 5.52259C503.996 5.51872 504.2 5.59279 504.405 5.66519C505.334 8.11536 506.03 10.1256 506.606 11.8025C508.278 16.6752 508.975 18.6799 511.371 20.3397C512.681 19.8721 513.433 18.9546 514.334 17.8608C515.096 16.9377 515.951 15.892 517.353 14.759C518.802 10.8634 519.211 10.8933 520.762 10.8938C522.249 10.8938 522.379 10.9126 523.521 13.5601C524.106 14.9231 524.886 16.7371 525.945 17.1986L526.577 17.1356L526.735 17.3235C526.846 17.4551 526.958 17.5656 527.051 17.6585C527.664 16.9245 528.165 15.4902 528.621 14.183C530.172 9.76686 530.692 9.76576 532.392 9.76244C533.544 9.76465 533.776 9.81827 534.166 10.0487C535.578 10.3605 536.451 10.7916 537.222 11.1724C537.751 11.4338 538.337 11.7246 538.94 11.8412C539.135 11.8136 539.396 11.7699 539.711 11.7008L541.504 11.3089L541.616 11.7124C541.894 12.7018 542.6 15.1564 543.353 16.4978C543.603 16.0396 543.854 15.4615 544.096 14.8927C544.857 13.1075 545.721 11.084 547.18 10.8502L548.861 10.5805L549.065 10.8651C551.35 14.0846 552.214 14.3483 553.375 14.3997C554.313 14.4417 555.196 14.4809 556.496 15.0027C557.026 15.6505 557.49 16.1291 557.889 16.4364C558.465 15.8412 559.013 14.6584 559.664 13.265C560.267 11.9761 561.01 10.3721 562.023 8.67581L563.946 8.66863C565.738 9.24566 566.658 12.432 567.559 15.514C568.181 17.648 568.813 19.8356 569.705 20.8874L569.965 20.165C572.77 12.4138 572.891 12.4138 574.832 12.4127C576.402 12.4138 576.606 12.4116 578.873 15.3647L576.931 15.3692C576.272 14.5042 575.547 13.5618 574.906 12.998C574.126 13.973 573.272 16.3441 571.888 20.1672L571.414 21.4816C571.237 21.5402 571.014 21.6115 569.9 21.6048C567.949 21.5966 567.308 21.3351 565.618 15.5162C564.977 13.3114 564.317 11.053 563.351 9.73978C562.636 11.0392 562.079 12.2519 561.605 13.2683C559.905 16.9228 559.682 16.9228 557.973 16.9239C556.561 16.9245 556.115 16.925 554.573 15.0127C553.375 14.5362 552.604 14.5019 552.14 14.4815C550.551 14.4107 549.752 14.3754 547.737 11.7085C547.04 12.5249 546.492 13.7978 546.028 14.896C544.922 17.4805 544.913 17.4811 543.362 17.4783C542.08 17.4777 541.885 17.4777 541.235 16.1695C540.798 15.278 540.306 13.9023 539.749 11.9689C539.461 11.9816 539.163 11.9866 538.801 11.9854C537.064 11.9794 536.618 11.8384 535.299 11.184C534.593 10.8342 533.804 10.4412 532.568 10.1366C531.742 10.827 531.119 12.5918 530.562 14.1852C529.141 18.2228 528.788 18.2228 527.116 18.2245C525.918 18.2239 525.574 18.225 524.831 17.3644C523.605 17.2694 522.954 16.7415 521.58 13.5629C521.292 12.8991 521.004 12.2226 520.697 11.7262C520.27 12.3547 519.796 13.3694 519.285 14.7639C517.883 15.8986 517.019 16.9438 516.257 17.8658C514.985 19.4122 514.139 20.4336 511.724 20.6807L510.192 20.8377L509.904 20.6608C507.099 18.9286 506.43 16.9886 504.646 11.8053C504.108 10.2499 503.476 8.40775 502.659 6.19911C501.748 7.25424 501.098 9.54191 500.466 11.7727C499.584 14.875 498.674 18.083 496.955 19.2199L495.023 19.2182L494.8 18.9927C493.881 18.0697 493.128 17.3208 492.515 16.9073C491.735 17.5242 490.788 18.9153 489.524 20.7874L487.583 20.7863C486.923 18.6252 486.125 16.2165 485.344 15.0414C485.14 15.3056 484.945 15.6151 484.741 15.9202C484.081 16.9267 483.264 18.1797 482.065 18.7457L481.183 19.163L480.143 18.7468C478.359 18.0382 477.44 15.7726 476.539 13.5822C475.888 11.9937 475.182 10.2439 474.142 9.42916C472.935 10.8723 472.164 13.6226 471.467 16.0821C470.129 20.8316 469.916 20.8316 468.29 20.8316C467.324 20.8333 466.748 20.831 466.061 19.5874C465.141 20.7752 464.547 20.7758 463.488 20.7763C462.02 20.7747 461.955 20.7752 460.841 19.5128C460.209 18.7954 459.261 17.7115 458.035 17.6132L457.822 17.5993V17.5828C457.524 17.2677 457.264 17.0444 457.041 16.8858C456.438 17.4672 455.918 18.639 455.379 19.861C454.617 21.591 453.744 23.5515 452.314 24.9244C452.091 25.0493 452.016 25.1146 450.809 25.1146C449.434 25.1112 448.812 25.1096 447.929 21.9707C447.4 20.1042 446.972 17.6364 446.517 15.0237C445.895 11.4134 445.245 7.71686 444.307 5.46843C443.22 9.34625 442.486 12.6222 441.836 15.5615C440.619 21.0273 439.737 24.9764 437.433 28.3932L435.501 28.3955C433.81 27.2458 432.909 24.3828 432.036 21.6142C431.367 19.4835 430.671 17.2926 429.686 16.4901C428.209 17.4258 427.336 18.66 426.565 19.7577C425.515 21.2478 424.605 22.534 422.506 22.8462L421.781 22.954L420.75 22.8534C418.874 22.6705 418.029 21.2605 416.849 18.9601C415.948 17.1887 415.01 15.3575 413.208 14.9159C413.18 14.8828 413.143 14.8518 413.115 14.822C412.465 15.682 411.945 17.4181 411.471 18.9983C410.115 23.5073 409.817 23.5073 408.173 23.5078C406.845 23.5073 406.566 23.5084 405.74 22.1548C404.114 19.0591 403.185 15.5449 402.368 12.4442C401.448 8.9693 400.64 5.90396 399.098 4.23312C398.049 5.68896 397.333 9.26832 396.683 12.5061C395.141 20.2236 394.714 20.2242 392.93 20.2258C392.624 20.2258 392.355 20.2264 392.141 20.2098C391.519 20.8548 391.101 20.8548 390.06 20.8548C388.351 20.8537 388.045 20.8537 386.54 16.2728C385.806 14.0355 384.979 11.514 383.651 9.77626C382.899 10.7894 382.313 12.9903 381.784 14.9878C380.409 20.2275 380.103 20.2275 378.421 20.228C377.929 20.2303 377.558 20.2286 377.26 20.1402C376.462 21.5601 375.941 21.5728 374.855 21.5728C374.845 21.5728 374.836 21.5728 374.827 21.5728C373.238 21.5728 373.071 21.5728 371.817 18.2571C371.065 16.2568 370.117 13.7674 368.622 13.5518C368.39 13.4988 368.204 13.4601 368.037 13.4313C366.857 13.7845 366.067 15.2083 364.646 17.7779C364.2 18.5859 363.68 19.5184 363.058 20.5873L361.126 20.589C359.993 19.5858 359.194 18.6302 358.544 17.8624C357.819 17.0002 357.178 16.233 356.444 15.9296C356.221 15.9926 355.943 16.086 355.618 16.2242L353.686 16.2187C353.295 15.2896 352.961 14.6683 352.682 14.2588C352.367 14.78 352.069 15.5012 351.791 16.1722C350.583 19.1094 350.342 19.1094 348.79 19.1099C347.462 19.1099 347.137 19.111 346.255 17.6474C344.518 17.03 343.607 13.3495 342.725 9.79063C342.121 7.35207 341.499 4.84939 340.653 3.77381C338.824 7.6649 337.932 11.2448 336.984 15.0309C336.083 18.6395 335.145 22.3709 333.334 26.4748H331.393C329.878 22.5002 328.987 18.5395 328.197 15.0453C327.305 11.1166 326.572 7.83016 325.243 5.95316C323.804 8.97428 322.977 12.2917 322.178 15.5134C321.259 19.1939 320.32 22.9993 318.453 26.3112L318.416 26.3233C318.128 26.3808 317.534 26.3891 317.106 26.3864C315.75 26.377 314.924 26.3709 313.93 22.9579C313.326 20.8747 312.843 18.062 312.295 14.8054C311.561 10.4882 310.734 5.6359 309.397 1.39494C308.542 2.92761 307.92 5.94597 307.344 8.69847C305.691 16.7111 305.133 16.7122 303.294 16.7156C302.189 16.7145 301.984 16.668 301.65 16.4353C299.43 14.3168 298.529 12.1667 297.386 9.44463C296.671 7.73731 295.863 5.82161 294.59 3.52454C293.634 5.3109 292.974 9.6425 292.333 13.8614C291.432 19.7444 290.513 25.8281 288.701 26.3128L286.992 26.7705L286.779 26.304C285.302 23.0646 284.429 19.0358 283.648 15.4808C282.924 12.1607 282.274 9.20586 281.354 8.08883C281.326 8.11149 281.298 8.13526 281.27 8.16068L279.376 8.16013C278.744 9.04668 278.233 10.796 277.796 12.2795C276.626 16.2745 276.459 16.2745 274.908 16.275C274.898 16.275 274.898 16.275 274.889 16.275C273.709 16.275 273.217 16.2645 272.381 14.0581C272.084 14.1316 271.722 14.1311 271.257 14.1311C269.585 14.1305 269.288 14.13 267.885 9.51538C267.365 7.80087 266.761 5.80503 265.953 4.62499C264.532 8.13581 263.715 12.5404 262.925 16.8128C261.931 22.157 260.984 27.2093 258.977 28.9924Z" fill="url(#paint0_linear_1409_2511)"/>
<defs>
<linearGradient id="paint0_linear_1409_2511" x1="-61.4347" y1="21.3516" x2="-59.4932" y2="-14.908" gradientUnits="userSpaceOnUse">
<stop offset="0.0775" stop-color="#2DF1E6"/>
<stop offset="0.4923" stop-color="#3694B0"/>
<stop offset="0.524" stop-color="#468DB3"/>
<stop offset="0.6154" stop-color="#6F79BA"/>
<stop offset="0.6984" stop-color="#8D6BBF"/>
<stop offset="0.7694" stop-color="#9F63C2"/>
<stop offset="0.8201" stop-color="#A660C3"/>
</linearGradient>
</defs>
</svg>
