<svg width="80" height="80" viewBox="0 0 80 80" fill="none" xmlns="http://www.w3.org/2000/svg">
<path d="M70 40C70 43.9397 69.224 47.8407 67.7164 51.4805C66.2088 55.1203 63.999 58.4274 61.2132 61.2132C58.4274 63.999 55.1203 66.2088 51.4805 67.7164C47.8407 69.224 43.9397 70 40 70C36.0603 70 32.1593 69.224 28.5195 67.7164C24.8797 66.2088 21.5726 63.999 18.7868 61.2132C16.001 58.4274 13.7913 55.1203 12.2836 51.4805C10.776 47.8407 10 43.9397 10 40C10 32.0435 13.1607 24.4129 18.7868 18.7868C24.4129 13.1607 32.0435 10 40 10C47.9565 10 55.5871 13.1607 61.2132 18.7868C66.8393 24.4129 70 32.0435 70 40Z" stroke="white" stroke-width="3" stroke-linecap="round" stroke-linejoin="round"/>
<path d="M53.0333 38.9067C53.2285 39.0148 53.3912 39.1733 53.5044 39.3655C53.6177 39.5578 53.6774 39.7769 53.6774 40C53.6774 40.2231 53.6177 40.4422 53.5044 40.6345C53.3912 40.8267 53.2285 40.9852 53.0333 41.0933L34.3567 51.47C34.1664 51.5756 33.9517 51.6298 33.7341 51.627C33.5164 51.6242 33.3033 51.5647 33.1157 51.4542C32.9282 51.3438 32.7727 51.1862 32.6647 50.9972C32.5567 50.8083 32.4999 50.5943 32.5 50.3767V29.6233C32.5 28.67 33.5233 28.07 34.3567 28.5333L53.0333 38.9067Z" fill="white"/>
</svg>
